#!OML:ASF E:\VariousWalksJay\Project 1\Capture day 1\Session 1\Actor2.ASF
:FULLY-SPECIFIED
:DEGREES
1052
root -6.74512 16.6023 39.2863 9.51567 -30.2761 -4.11007
lowerback 9.79699 -1.97966 3.02993
upperback 12.8221 -2.68138 -1.66019
thorax 7.91581 -1.09575 -3.38907
lowerneck 5.51143 -0.71896 -1.77898
upperneck -8.6828 -0.2244 10.4506
head -3.46826 -0.562515 3.48841
rclavicle -9.62118e-014 2.06736e-014
rhumerus -42.5209 25.6191 -88.6362
rradius 59.4996
rwrist 3.78579
rhand -12.8816 -10.0618
rfingers 7.12502
rthumb 13.2073 -39.6234
lclavicle -9.62118e-014 2.06736e-014
lhumerus 12.5467 -25.6042 64.5592
lradius 69.2015
lwrist 78.3892
lhand -35.0368 5.38041
lfingers 7.12502
lthumb -8.18025 35.2021
rfemur -35.4448 5.56112 19.7065
rtibia 45.1349
rfoot -16.0687 -5.48847
rtoes -19.6744
lfemur -28.9238 9.84952 -24.4537
ltibia 37.7406
lfoot -16.2397 2.92144
ltoes 1.81188
1053
root -6.77812 16.6225 39.3422 9.3817 -30.2509 -4.09978
lowerback 9.4649 -1.9733 3.00388
upperback 12.6651 -2.67663 -1.63235
thorax 7.92578 -1.0957 -3.35262
lowerneck 5.32952 -0.731927 -1.76909
upperneck -8.24078 -0.279666 10.4403
head -3.30182 -0.570374 3.47881
rclavicle -5.56597e-014 5.32743e-014
rhumerus -42.577 25.4574 -88.7073
rradius 59.3086
rwrist 3.7852
rhand -12.941 -10.0165
rfingers 7.12502
rthumb 13.15 -39.5818
lclavicle -5.56597e-014 5.32743e-014
lhumerus 11.9286 -25.8374 64.977
lradius 69.1729
lwrist 78.3649
lhand -35.0026 5.35108
lfingers 7.12502
lthumb -8.14726 35.174
rfemur -34.5367 5.65086 19.7157
rtibia 44.1759
rfoot -15.9388 -5.38273
rtoes -18.3205
lfemur -28.274 9.77889 -24.3705
ltibia 37.3048
lfoot -16.2963 2.97315
ltoes 1.75569
1054
root -6.81162 16.6428 39.3975 9.27549 -30.2306 -4.11015
lowerback 9.11639 -1.96136 2.99492
upperback 12.5007 -2.66406 -1.60345
thorax 7.93761 -1.09024 -3.32527
lowerneck 5.12783 -0.751398 -1.74452
upperneck -7.77124 -0.345186 10.4292
head -3.12359 -0.582396 3.46657
rclavicle -4.37326e-014 4.77083e-015
rhumerus -42.6141 25.2732 -88.7761
rradius 59.1144
rwrist 3.80389
rhand -12.9557 -10.0425
rfingers 7.12502
rthumb 13.1359 -39.6087
lclavicle -4.37326e-014 4.77083e-015
lhumerus 11.3076 -26.0858 65.3833
lradius 69.1561
lwrist 78.3533
lhand -34.9605 5.32102
lfingers 7.12502
lthumb -8.10662 35.1455
rfemur -33.6582 5.72162 19.7607
rtibia 43.2897
rfoot -15.9033 -5.34163
rtoes -16.8501
lfemur -27.6455 9.7047 -24.2684
ltibia 36.8695
lfoot -16.3489 3.03499
ltoes 1.68487
1055
root -6.84526 16.6632 39.4516 9.19017 -30.2152 -4.11339
lowerback 8.75991 -1.95009 2.96986
upperback 12.3208 -2.65257 -1.57272
thorax 7.93751 -1.08703 -3.28672
lowerneck 4.93617 -0.769036 -1.76943
upperneck -7.05011 -0.449761 10.1617
head -3.1781 -0.57651 3.76075
rclavicle -6.44062e-014 2.22639e-014
rhumerus -42.6372 25.0959 -88.8391
rradius 58.909
rwrist 3.83116
rhand -12.9437 -10.1046
rfingers 7.12502
rthumb 13.1475 -39.6701
lclavicle -6.44062e-014 2.22639e-014
lhumerus 10.6599 -26.3237 65.8004
lradius 69.1469
lwrist 78.3466
lhand -34.9219 5.28387
lfingers 7.12502
lthumb -8.06935 35.1098
rfemur -32.8335 5.76465 19.8145
rtibia 42.4707
rfoot -15.9162 -5.35136
rtoes -15.3418
lfemur -27.0466 9.61691 -24.175
ltibia 36.4301
lfoot -16.3879 3.11562
ltoes 1.60087
1056
root -6.87873 16.6838 39.5041 9.14875 -30.1905 -4.14487
lowerback 8.39458 -1.94517 2.96467
upperback 12.1239 -2.64901 -1.5309
thorax 7.92325 -1.08697 -3.24707
lowerneck 4.73203 -0.788749 -1.78642
upperneck -6.56926 -0.516897 10.1753
head -2.96935 -0.591078 3.75352
rclavicle 4.92986e-014 -4.85035e-014
rhumerus -42.6471 24.9229 -88.8947
rradius 58.6901
rwrist 3.86376
rhand -12.9199 -10.1833
rfingers 7.12502
rthumb 13.1704 -39.7473
lclavicle 4.92986e-014 -4.85035e-014
lhumerus 9.98187 -26.5415 66.2364
lradius 69.1437
lwrist 78.3422
lhand -34.8781 5.25162
lfingers 7.12502
lthumb -8.02716 35.0792
rfemur -32.0757 5.77043 19.9105
rtibia 41.7101
rfoot -15.9363 -5.38906
rtoes -13.8304
lfemur -26.4887 9.5073 -24.0556
ltibia 35.9909
lfoot -16.4119 3.2089
ltoes 1.49766
1057
root -6.91204 16.7048 39.5558 9.13429 -30.1705 -4.18813
lowerback 8.01498 -1.94127 2.96635
upperback 11.9218 -2.6472 -1.48527
thorax 7.9121 -1.08729 -3.20772
lowerneck 4.5195 -0.813899 -1.81427
upperneck -6.08787 -0.592323 10.1904
head -2.75994 -0.609298 3.74956
rclavicle -1.90833e-014 -3.97569e-015
rhumerus -42.6307 24.7504 -88.9384
rradius 58.4555
rwrist 3.89464
rhand -12.8988 -10.2587
rfingers 7.12502
rthumb 13.1907 -39.8214
lclavicle -1.90833e-014 -3.97569e-015
lhumerus 9.29079 -26.7345 66.6824
lradius 69.1424
lwrist 78.3443
lhand -34.8411 5.22657
lfingers 7.12502
lthumb -7.99145 35.0555
rfemur -31.3843 5.74257 20.0281
rtibia 41.0088
rfoot -15.9152 -5.42964
rtoes -12.406
lfemur -25.9559 9.3822 -23.9263
ltibia 35.5503
lfoot -16.4264 3.3205
ltoes 1.37169
1058
root -6.94455 16.7263 39.6064 9.15439 -30.1429 -4.25994
lowerback 7.63333 -1.94542 2.99572
upperback 11.7134 -2.65598 -1.4308
thorax 7.89464 -1.09122 -3.1743
lowerneck 4.31775 -0.836682 -1.85228
upperneck -5.63164 -0.663423 10.2001
head -2.56289 -0.625935 3.74686
rclavicle -8.82604e-014 3.65764e-014
rhumerus -42.5908 24.5802 -88.9668
rradius 58.2074
rwrist 3.93728
rhand -12.8767 -10.3231
rfingers 7.12502
rthumb 13.212 -39.8844
lclavicle -8.82604e-014 3.65764e-014
lhumerus 8.58351 -26.8899 67.1426
lradius 69.1416
lwrist 78.3482
lhand -34.8045 5.21724
lfingers 7.12502
lthumb -7.95606 35.0475
rfemur -30.762 5.66431 20.1815
rtibia 40.3628
rfoot -15.8117 -5.45623
rtoes -11.1848
lfemur -25.452 9.23126 -23.7717
ltibia 35.1143
lfoot -16.4327 3.44966
ltoes 1.23465
1059
root -6.9764 16.7481 39.656 9.19473 -30.1283 -4.34814
lowerback 7.253 -1.9476 3.0361
upperback 11.5052 -2.66275 -1.37046
thorax 7.87763 -1.09362 -3.14102
lowerneck 4.11451 -0.865775 -1.89312
upperneck -5.20142 -0.741724 10.1967
head -2.37501 -0.646454 3.74136
rclavicle -2.90226e-014 1.19271e-014
rhumerus -42.5276 24.4087 -88.9763
rradius 57.9528
rwrist 3.98488
rhand -12.8531 -10.3946
rfingers 7.12502
rthumb 13.2348 -39.9544
lclavicle -2.90226e-014 1.19271e-014
lhumerus 7.86839 -27.013 67.6176
lradius 69.14
lwrist 78.3467
lhand -34.7779 5.21412
lfingers 7.12502
lthumb -7.9304 35.0454
rfemur -30.2057 5.56317 20.3523
rtibia 39.7733
rfoot -15.6335 -5.46053
rtoes -10.1499
lfemur -24.9674 9.06979 -23.6035
ltibia 34.6809
lfoot -16.432 3.60068
ltoes 1.08723
1060
root -7.00734 16.7699 39.7042 9.26308 -30.1239 -4.46834
lowerback 6.87355 -1.95049 3.10019
upperback 11.3027 -2.67142 -1.301
thorax 7.86702 -1.09545 -3.11171
lowerneck 3.90289 -0.895744 -1.93773
upperneck -4.80714 -0.818706 10.1875
head -2.19877 -0.667014 3.73562
rclavicle 3.57812e-014 2.06736e-014
rhumerus -42.4351 24.2445 -88.9663
rradius 57.6924
rwrist 4.02567
rhand -12.866 -10.417
rfingers 7.12502
rthumb 13.2224 -39.9777
lclavicle 3.57812e-014 2.06736e-014
lhumerus 7.15913 -27.0976 68.0958
lradius 69.135
lwrist 78.3442
lhand -34.7556 5.23849
lfingers 7.12502
lthumb -7.90892 35.0705
rfemur -29.7104 5.44504 20.5511
rtibia 39.2359
rfoot -15.3973 -5.45292
rtoes -9.35124
lfemur -24.5062 8.90372 -23.4085
ltibia 34.2569
lfoot -16.4279 3.76944
ltoes 0.926427
1061
root -7.0374 16.7916 39.7517 9.33837 -30.1375 -4.59604
lowerback 6.50439 -1.9507 3.17036
upperback 11.1034 -2.67713 -1.22974
thorax 7.85511 -1.09559 -3.08383
lowerneck 3.69314 -0.924358 -1.97362
upperneck -4.44678 -0.891191 10.1577
head -2.0353 -0.686082 3.72199
rclavicle -1.98785e-014 5.56597e-015
rhumerus -42.33 24.0839 -88.9397
rradius 57.4337
rwrist 4.07343
rhand -12.886 -10.4138
rfingers 7.12502
rthumb 13.2031 -39.9757
lclavicle -1.98785e-014 5.56597e-015
lhumerus 6.45382 -27.1607 68.5708
lradius 69.1261
lwrist 78.3472
lhand -34.7413 5.27313
lfingers 7.12502
lthumb -7.89511 35.1057
rfemur -29.2599 5.31229 20.75
rtibia 38.7474
rfoot -15.1296 -5.4199
rtoes -8.79014
lfemur -24.0547 8.73988 -23.2116
ltibia 33.8418
lfoot -16.4294 3.95484
ltoes 0.766868
1062
root -7.06669 16.8126 39.7978 9.42939 -30.1716 -4.74433
lowerback 6.14806 -1.94414 3.255
upperback 10.9085 -2.67437 -1.15637
thorax 7.84185 -1.09069 -3.06161
lowerneck 3.47463 -0.954705 -1.98523
upperneck -4.11408 -0.962967 10.1099
head -1.88016 -0.705518 3.69808
rclavicle -1.12512e-013 2.94201e-014
rhumerus -42.2115 23.9218 -88.9006
rradius 57.1946
rwrist 4.13913
rhand -12.8942 -10.427
rfingers 7.12502
rthumb 13.1951 -39.9895
lclavicle -1.12512e-013 2.94201e-014
lhumerus 5.767 -27.2177 69.0267
lradius 69.1156
lwrist 78.3614
lhand -34.7314 5.31434
lfingers 7.12502
lthumb -7.88558 35.1473
rfemur -28.8497 5.18823 20.9584
rtibia 38.2981
rfoot -14.8701 -5.35794
rtoes -8.35319
lfemur -23.6221 8.58748 -23.0003
ltibia 33.4408
lfoot -16.4353 4.15162
ltoes 0.607221
1063
root -7.09547 16.8326 39.8432 9.52248 -30.2278 -4.89044
lowerback 5.80301 -1.93443 3.3295
upperback 10.7143 -2.66788 -1.08433
thorax 7.82428 -1.08492 -3.03483
lowerneck 3.25683 -0.978796 -1.98828
upperneck -3.79887 -1.02448 10.0527
head -1.7324 -0.720437 3.66975
rclavicle 2.50469e-014 1.19271e-014
rhumerus -42.0945 23.7805 -88.8569
rradius 56.9739
rwrist 4.20315
rhand -12.9005 -10.4318
rfingers 7.12502
rthumb 13.1891 -39.9946
lclavicle 2.50469e-014 1.19271e-014
lhumerus 5.08455 -27.2676 69.4654
lradius 69.1039
lwrist 78.3831
lhand -34.7227 5.36014
lfingers 7.12502
lthumb -7.87718 35.1934
rfemur -28.4693 5.07234 21.1547
rtibia 37.8806
rfoot -14.6416 -5.25326
rtoes -7.99883
lfemur -23.2019 8.45448 -22.7979
ltibia 33.0506
lfoot -16.4503 4.3539
ltoes 0.457825
1064
root -7.12399 16.8514 39.8879 9.61873 -30.2981 -5.04024
lowerback 5.45946 -1.90295 3.42462
upperback 10.5348 -2.63246 -1.02994
thorax 7.82367 -1.06202 -3.03853
lowerneck 3.0016 -1.02046 -1.91634
upperneck -3.49216 -1.10622 9.98281
head -1.58003 -0.745849 3.62287
rclavicle -7.55382e-014 2.3059e-014
rhumerus -41.9603 23.5765 -88.8166
rradius 56.7741
rwrist 4.26792
rhand -12.9142 -10.4198
rfingers 7.12502
rthumb 13.1759 -39.9834
lclavicle -7.55382e-014 2.3059e-014
lhumerus 4.47539 -27.3866 69.8355
lradius 69.09
lwrist 78.4273
lhand -34.7123 5.40453
lfingers 7.12502
lthumb -7.86708 35.2382
rfemur -28.1064 4.9614 21.3478
rtibia 37.485
rfoot -14.4604 -5.11401
rtoes -7.69568
lfemur -22.7939 8.34244 -22.5978
ltibia 32.677
lfoot -16.479 4.55266
ltoes 0.324813
1065
root -7.15239 16.8689 39.9322 9.70692 -30.3776 -5.16988
lowerback 5.10889 -1.85971 3.51369
upperback 10.3657 -2.58184 -0.991128
thorax 7.84002 -1.03096 -3.05564
lowerneck 2.72693 -1.06787 -1.81091
upperneck -3.18787 -1.19448 9.91527
head -1.42552 -0.774691 3.57065
rclavicle -1.55052e-014 -3.10104e-014
rhumerus -41.8218 23.3513 -88.7806
rradius 56.6035
rwrist 4.32852
rhand -12.9184 -10.4212
rfingers 7.12502
rthumb 13.1718 -39.9852
lclavicle -1.55052e-014 -3.10104e-014
lhumerus 3.91775 -27.552 70.1546
lradius 69.0745
lwrist 78.4861
lhand -34.7021 5.44725
lfingers 7.12502
lthumb -7.85725 35.2812
rfemur -27.7568 4.84598 21.518
rtibia 37.1087
rfoot -14.3253 -4.95094
rtoes -7.44293
lfemur -22.3949 8.25126 -22.4229
ltibia 32.3139
lfoot -16.5197 4.74003
ltoes 0.21372
